<?xml version="1.0" standalone="no"?>
<!DOCTYPE svg PUBLIC "-//W3C//DTD SVG 20010904//EN"
 "http://www.w3.org/TR/2001/REC-SVG-20010904/DTD/svg10.dtd">
<svg version="1.0" xmlns="http://www.w3.org/2000/svg"
 width="74.000000pt" height="36.000000pt" viewBox="0 0 74.000000 36.000000"
 preserveAspectRatio="xMidYMid meet">

<g transform="translate(0.000000,36.000000) scale(0.100000,-0.100000)"
fill="#000000" stroke="none">
<path d="M261 303 c-145 -66 -150 -82 -7 -23 54 23 100 39 103 37 2 -3 -8 -30
-23 -61 -16 -30 -25 -59 -20 -63 7 -7 104 15 247 58 71 20 91 42 64 68 -17 17
-28 14 -182 -53 -46 -19 -83 -34 -83 -32 0 1 9 29 20 61 11 32 20 60 20 62 0
8 -21 -1 -139 -54z"/>
<path d="M250 80 c-32 -63 -36 -80 -20 -80 5 0 20 21 33 47 l24 46 14 -43 c8
-24 19 -45 26 -47 6 -3 24 15 40 38 l28 43 5 -39 c3 -21 11 -40 18 -43 9 -3
12 15 12 67 0 87 -12 91 -58 20 -18 -27 -36 -47 -41 -45 -5 3 -14 26 -20 51
-6 25 -16 45 -21 45 -5 0 -23 -27 -40 -60z"/>
<path d="M20 78 c-6 -24 -13 -51 -16 -60 -4 -12 0 -18 10 -18 9 0 16 6 16 13
0 6 4 18 9 26 7 11 14 8 34 -15 25 -29 51 -28 27 1 -10 13 -10 19 4 33 33 37
15 62 -44 62 -26 0 -30 -5 -40 -42z m73 15 c9 -9 -12 -33 -29 -33 -8 0 -14 9
-14 20 0 19 28 28 43 13z"/>
<path d="M161 64 c-12 -54 -9 -77 8 -58 7 8 31 91 31 108 0 3 -6 6 -13 6 -9 0
-19 -22 -26 -56z"/>
<path d="M517 88 c-42 -57 -60 -88 -49 -88 5 0 15 7 22 15 16 19 59 19 66 0 4
-8 12 -15 19 -15 11 0 11 9 0 51 -19 71 -28 77 -58 37z m33 -22 c0 -16 -18
-31 -27 -22 -8 8 5 36 17 36 5 0 10 -6 10 -14z"/>
<path d="M636 99 c-32 -25 -34 -62 -4 -83 25 -18 64 -21 73 -6 3 6 -3 10 -14
10 -34 0 -51 12 -51 36 0 26 26 44 64 44 14 0 26 5 26 10 0 18 -67 11 -94 -11z"/>
</g>
</svg>
